:version 1.10
:name ASF
:units
  mass 1
  length 1
  angle deg
:documentation
  ASF file generated by Kaydara
:root
  axis xyz
  order  tx ty tz rx ry rz
  position 0 0 0
  orientation 0 0 0
:bonedata
  begin
    id 1
    name RightUpLegDummy
    direction -0.718183 -0.695806 0.00816078
    length 4.904
    axis 0 0 0 xyz
  end
  begin
    id 2
    name RightUpLeg
    direction 3.53373e-006 -0.995788 0.0916898
    length 17.4976
    axis -3.49089 -0.000906625 0.000286804 xyz
    dof rx ry rz
  end
  begin
    id 3
    name RightLeg
    direction 0.00371092 -0.995096 -0.0988419
    length 16.5821
    axis 3.68512 0.0193738 -0.131023 xyz
    dof rx ry rz
  end
  begin
    id 4
    name RightFoot
    direction 0.00079151 -0.46099 0.887405
    length 3.77069
    axis 4.81691e-005 -0.120479 -0.188788 xyz
    dof rx ry rz
  end
  begin
    id 5
    name RightToes
    direction 0.00124746 -0.014064 0.9999
    length 3.85082
    axis 0.000481921 0.542163 -0.142578 xyz
    dof rx ry rz
  end
  begin
    id 6
    name SpineDummy
    direction 8.3039e-015 1 4.57515e-016
    length 4.6813
    axis 0 0 0 xyz
  end
  begin
    id 7
    name Spine
    direction -3.15643e-008 0.999988 0.00495137
    length 10.1015
    axis -0.001389 0.000121418 2.40972e-006 xyz
    dof rx ry rz
  end
  begin
    id 8
    name Spine1
    direction 0 0 0
    length 0
    axis -0.001389 0.000121451 1.30017e-006 xyz
    dof rx ry rz
  end
  begin
    id 9
    name HEadDummy
    direction -1.99912e-008 0.999999 0.00127422
    length 3.43865
    axis -0.001389 0.000121451 1.30017e-006 xyz
  end
  begin
    id 10
    name HEad
    direction -0.0222688 0.980941 0.193023
    length 5.12695
    axis -0.001389 0.000121451 1.30017e-006 xyz
    dof rx ry rz
  end
  begin
    id 11
    name LeftShoulder1Dummy
    direction 0.998891 -0.0402509 -0.0244456
    length 3.5433
    axis -0.001389 0.000121451 1.30017e-006 xyz
  end
  begin
    id 12
    name LeftShoulder1
    direction 0.99951 -0.000327763 0.0313091
    length 4.05031
    axis -0.001389 0.000121451 1.30017e-006 xyz
    dof rx ry rz
  end
  begin
    id 13
    name LeftArm
    direction 0.998561 -0.00100056 -0.0536182
    length 10.3537
    axis -23.1894 0.134784 0.967509 xyz
    dof rx ry rz
  end
  begin
    id 14
    name LeftForeArm
    direction 0.998903 0.00866432 0.046012
    length 8.70632
    axis -9.91835 -0.06569 -0.177794 xyz
    dof rx ry rz
  end
  begin
    id 15
    name LeftHand
    direction 0.992938 -0.0411637 0.11126
    length 5.32135
    axis -0.00960232 -0.00340091 0.185173 xyz
    dof rx ry rz
  end
  begin
    id 16
    name RightShoulderDummy
    direction -0.998891 -0.0402509 -0.0244414
    length 3.5433
    axis -0.001389 0.000121451 1.30017e-006 xyz
  end
  begin
    id 17
    name RightShoulder
    direction -0.99951 -0.000327807 0.0313133
    length 4.05031
    axis 0.215806 0.000203643 -0.0068026 xyz
    dof rx ry rz
  end
  begin
    id 18
    name RightArm
    direction -0.998573 -0.000999564 -0.053403
    length 10.3947
    axis -23.2009 -0.134239 -0.964101 xyz
    dof rx ry rz
  end
  begin
    id 19
    name RightForeArm
    direction -0.998898 0.00868028 0.0461306
    length 8.68355
    axis -9.92322 0.0658061 0.178868 xyz
    dof rx ry rz
  end
  begin
    id 20
    name RightHand
    direction -0.992843 -0.0414603 0.112003
    length 5.28593
    axis -0.00960638 0.00330671 -0.185228 xyz
    dof rx ry rz
  end
  begin
    id 21
    name LeftUpLegDummy
    direction 0.718183 -0.695806 0.00816078
    length 4.904
    axis 0 0 0 xyz
  end
  begin
    id 22
    name LeftUpLeg
    direction -6.81752e-006 -0.995793 0.0916337
    length 17.4976
    axis -3.48766 0.00143442 -0.000524262 xyz
    dof rx ry rz
  end
  begin
    id 23
    name LeftLeg
    direction -0.00601358 -0.995091 -0.0987824
    length 16.5821
    axis 3.68178 -0.00654042 -0.000285133 xyz
    dof rx ry rz
  end
  begin
    id 24
    name LeftFoot
    direction -0.00417578 -0.460984 0.887399
    length 3.77069
    axis 1.87233e-006 4.66016e-005 -8.6538e-006 xyz
    dof rx ry rz
  end
  begin
    id 25
    name LeftToes
    direction 0.00818058 -0.00485161 0.999955
    length 3.85048
    axis 1.06247e-005 4.65869e-005 -8.65513e-006 xyz
    dof rx ry rz
  end
:hierarchy
  begin
    root RightUpLegDummy SpineDummy LeftUpLegDummy
    RightUpLegDummy RightUpLeg
    RightUpLeg RightLeg
    RightLeg RightFoot
    RightFoot RightToes
    SpineDummy Spine
    Spine Spine1
    Spine1 HEadDummy LeftShoulder1Dummy RightShoulderDummy
    HEadDummy HEad
    LeftShoulder1Dummy LeftShoulder1
    LeftShoulder1 LeftArm
    LeftArm LeftForeArm
    LeftForeArm LeftHand
    RightShoulderDummy RightShoulder
    RightShoulder RightArm
    RightArm RightForeArm
    RightForeArm RightHand
    LeftUpLegDummy LeftUpLeg
    LeftUpLeg LeftLeg
    LeftLeg LeftFoot
    LeftFoot LeftToes
  end

:SAMPLES-PER-SECOND 30
:FRAME-RANGE 1-1700
:FULLY-SPECIFIED
:DEGREES
1
root  -40.2443 38.6943 -98.7685 -5.7972 55.214 -5.15766
RightUpLeg  -10.8955 -3.76549 7.43564
RightLeg  17.9561 -22.46 -2.45656
RightFoot  -7.89905 0.0894404 -4.74764
RightToes  -1.16417e-010 0 -3.6325e-017
Spine  7.7934 -2.94226 9.50996
Spine1  -0.318407 -2.34512 3.61629
HEad  -1.79648 -37.8543 1.29893
LeftShoulder1  1.46084 -0.235396 -33.0143
LeftArm  6.5251 7.06137 -34.2891
LeftForeArm  10.7953 -2.17275 -17.5746
LeftHand  0.261394 0.260241 -6.00172
RightShoulder  7.24633 9.36221 49.3425
RightArm  16.5091 1.37888 16.4634
RightForeArm  21.3948 3.35645 16.5276
RightHand  0.399019 4.22907 4.53199
LeftUpLeg  -7.37382 23.5178 10.5739
LeftLeg  54.2469 0.0809162 0.593674
LeftFoot  4.59412 1.82376 -13.1835
LeftToes  1.03528e-008 1.55373e-010 -2.26046e-010
2
root  -39.7306 38.8496 -98.5443 -4.38788 54.1712 -3.36007
RightUpLeg  -9.50968 -4.26982 6.37952
RightLeg  17.1227 -20.7527 -2.05304
RightFoot  -8.25332 0.0613538 -4.34141
RightToes  -1.16417e-010 0 -3.6325e-017
Spine  7.80731 -2.44716 9.71773
Spine1  -0.30059 -1.68727 2.60087
HEad  1.34492 -37.155 -0.0214523
LeftShoulder1  1.40201 -0.0680625 -33.1938
LeftArm  7.28794 7.48379 -34.0802
LeftForeArm  9.63945 -4.4208 -16.9666
LeftHand  0.26744 0.0671364 -5.8896
RightShoulder  7.83179 10.4353 49.2178
RightArm  15.6667 2.31384 16.872
RightForeArm  21.4289 3.14398 16.5137
RightHand  0.399993 4.15509 4.58405
LeftUpLeg  -9.82222 23.2403 9.48384
LeftLeg  53.6326 0.672796 1.44876
LeftFoot  2.82978 1.43541 -11.6557
LeftToes  1.03528e-008 1.55373e-010 -2.26046e-010
3
root  -39.2003 39.0383 -98.3222 -2.99795 53.1846 -1.51645
RightUpLeg  -7.77358 -4.80779 5.13421
RightLeg  15.6313 -19.1014 -1.47442
RightFoot  -8.27975 0.0477129 -3.87677
RightToes  -1.16417e-010 0 -3.6325e-017
Spine  7.67591 -2.01945 9.74555
Spine1  -0.367305 -1.16225 1.61572
HEad  5.38464 -36.3815 -1.82491
LeftShoulder1  1.35774 0.0648866 -33.4202
LeftArm  8.699 7.95088 -34.0604
LeftForeArm  7.921 -6.8877 -16.1393
LeftHand  0.286014 -0.19096 -5.97157
RightShoulder  8.04992 10.9413 48.8129
RightArm  14.8292 3.24043 17.5956
RightForeArm  21.6672 3.35396 16.3305
RightHand  0.433508 4.10175 5.02236
LeftUpLeg  -11.3222 22.6027 8.23317
LeftLeg  50.0161 0.898247 1.58041
LeftFoot  1.16675 0.981849 -9.01182
LeftToes  1.03528e-008 1.55373e-010 -2.26046e-010
4
root  -38.6781 39.277 -98.0824 -1.52865 52.0563 0.304947
RightUpLeg  -5.83099 -5.04824 3.89291
RightLeg  13.3649 -17.6918 -0.85328
RightFoot  -7.9193 0.0508719 -3.49335
RightToes  -1.16417e-010 0 -3.6325e-017
Spine  7.37272 -1.55957 9.47995
Spine1  -0.71897 -0.665259 0.438141
HEad  10.1379 -35.215 -4.00602
LeftShoulder1  1.31896 0.165411 -33.4455
LeftArm  10.1505 8.43369 -34.2158
LeftForeArm  6.4919 -8.92322 -15.2739
LeftHand  0.291007 -0.407171 -5.82197
RightShoulder  8.20072 11.2457 48.6986
RightArm  17.1287 3.54364 18.0409
RightForeArm  19.45 5.50733 15.8309
RightHand  0.405941 4.22776 4.61602
LeftUpLeg  -11.9284 21.9659 7.16874
LeftLeg  43.5855 1.3291 1.74253
LeftFoot  -1.53068 0.957654 -11.0267
LeftToes  1.03528e-008 1.55373e-010 -2.26046e-010
5
root  -38.1797 39.488 -97.8549 -0.258106 50.7012 1.83689
RightUpLeg  -4.00477 -5.21268 2.72256
RightLeg  11.0799 -16.0599 -0.239317
RightFoot  -7.49735 0.0559824 -3.17758
RightToes  -1.16417e-010 0 -3.6325e-017
Spine  7.0173 -1.17086 9.18243
Spine1  -0.881834 -0.244348 -0.756546
HEad  13.3254 -33.9044 -5.51606
LeftShoulder1  1.2321 0.37764 -33.3466
LeftArm  11.5654 8.96186 -34.6188
LeftForeArm  4.90727 -10.8917 -14.2687
LeftHand  0.29438 -0.569505 -5.70958
RightShoulder  8.24735 11.378 48.538
RightArm  21.7982 3.63965 18.5153
RightForeArm  15.4611 8.98998 14.6885
RightHand  0.416817 4.38714 4.65879
LeftUpLeg  -11.4385 21.6758 6.25309
LeftLeg  34.472 1.52581 1.47531
LeftFoot  -0.968323 0.954314 -10.4294
LeftToes  1.03528e-008 1.55373e-010 -2.26046e-010
6
root  -37.7376 39.6757 -97.6501 0.627395 49.374 2.722
RightUpLeg  -2.52978 -5.14412 1.92333
RightLeg  9.003 -14.6316 0.268853
RightFoot  -7.02641 0.0709546 -3.14336
RightToes  -1.16417e-010 0 -3.6325e-017
Spine  6.80169 -0.883369 8.79755
Spine1  -0.911675 0.0221026 -1.57819
HEad  13.9273 -32.4482 -5.96987
LeftShoulder1  1.18811 0.485509 -33.2965
LeftArm  12.3374 9.46698 -35.0552
LeftForeArm  3.41953 -12.6236 -13.1956
LeftHand  0.304803 -0.773223 -5.69408
RightShoulder  8.10465 11.186 48.3212
RightArm  28.2175 3.5746 19.0884
RightForeArm  9.74667 13.4406 12.3533
RightHand  0.417095 4.43154 4.638
LeftUpLeg  -10.4866 21.9573 5.88205
LeftLeg  23.8437 1.3271 0.967604
LeftFoot  0.186736 1.2395 -12.2552
LeftToes  1.03528e-008 1.55373e-010 -2.26046e-010
7
root  -37.3386 39.8278 -97.4668 1.2359 48.1313 3.09826
RightUpLeg  -1.27887 -4.98753 1.42075
RightLeg  6.95001 -13.5158 0.780764
RightFoot  -6.54537 0.0748611 -2.84388
RightToes  -1.16417e-010 0 -3.6325e-017
Spine  6.76633 -0.746274 8.10018
Spine1  -0.784552 0.0542755 -1.78078
HEad  10.3508 -30.2088 -4.9318
LeftShoulder1  1.17397 0.537726 -33.5099
LeftArm  13.6889 9.97718 -35.4292
LeftForeArm  1.5081 -14.3188 -12.0636
LeftHand  0.303487 -0.885893 -5.55456
RightShoulder  8.04267 11.1159 48.1809
RightArm  35.1788 3.23067 19.2534
RightForeArm  2.72142 17.942 8.99081
RightHand  0.40833 4.33805 4.58462
LeftUpLeg  -9.54848 22.1385 6.0107
LeftLeg  13.503 -1.07332 -0.505288
LeftFoot  0.29498 1.25512 -12.2994
LeftToes  1.03528e-008 1.55373e-010 -2.26046e-010
8
root  -36.9583 39.9402 -97.3005 1.7596 47.179 3.09551
RightUpLeg  -0.442162 -4.81111 1.18113
RightLeg  5.21367 -12.7189 1.20499
RightFoot  -6.08682 0.0864729 -2.7809
RightToes  -1.16417e-010 0 -3.6325e-017
Spine  6.79727 -0.750904 7.25853
Spine1  -0.740883 -0.092951 -1.60367
HEad  5.07796 -27.8485 -2.48966
LeftShoulder1  1.18719 0.503694 -33.5024
LeftArm  14.192 10.1112 -35.9018
LeftForeArm  1.12325 -14.771 -11.7372
LeftHand  0.292047 -0.885424 -5.34262
RightShoulder  7.90754 10.8396 48.2867
RightArm  39.379 2.92286 19.0335
RightForeArm  -2.07584 21.1328 6.32477
RightHand  0.389579 4.13765 4.46708
LeftUpLeg  -8.59152 12.3813 8.38328
LeftLeg  4.26691 5.33779 -3.12977
LeftFoot  -0.132954 1.2665 -12.8575
LeftToes  1.03528e-008 1.55373e-010 -2.26046e-010
9
root  -36.5748 40.0042 -97.1516 2.35275 46.6114 2.92865
RightUpLeg  0.000788408 -4.6671 1.03468
RightLeg  3.89848 -12.2236 1.49797
RightFoot  -5.84658 0.0628649 -2.13437
RightToes  -1.16417e-010 0 -3.6325e-017
Spine  6.83566 -0.839188 6.24548
Spine1  -1.11292 -0.381624 -1.05648
HEad  0.684068 -25.9555 -0.241433
LeftShoulder1  1.23068 0.391539 -33.4756
LeftArm  12.3726 9.62424 -36.2225
LeftForeArm  3.73865 -13.2927 -12.6779
LeftHand  0.29467 -1.05208 -5.23345
RightShoulder  7.79782 10.6277 48.3322
RightArm  39.6598 2.6462 18.9479
RightForeArm  -2.71002 21.7803 5.87193
RightHand  0.377001 4.05004 4.36037
LeftUpLeg  -9.08406 10.2118 9.01838
LeftLeg  -2.60543 6.43666 -3.41043
LeftFoot  0.411665 1.4453 -14.0109
LeftToes  1.03528e-008 1.55373e-010 -2.26046e-010
10
root  -36.1447 40.0015 -97.0189 2.51241 46.2985 2.43136
RightUpLeg  0.241363 -4.64596 1.04613
RightLeg  3.56554 -11.8075 1.5846
RightFoot  -5.98555 0.0499975 -1.93514
RightToes  -1.16417e-010 0 -3.6325e-017
Spine  6.81295 -0.936498 5.61656
Spine1  -1.47156 -0.670836 -0.421553
HEad  -2.33511 -25.2166 1.65068
LeftShoulder1  1.27321 0.267309 -33.2757
LeftArm  9.62558 8.43768 -36.4511
LeftForeArm  6.92222 -10.7186 -14.1346
LeftHand  0.30851 -1.02529 -5.50954
RightShoulder  7.79553 10.5649 48.5359
RightArm  37.8197 2.54947 18.8474
RightForeArm  -0.778318 20.0286 7.21745
RightHand  0.37525 4.24288 4.23879
LeftUpLeg  -10.5622 10.3551 9.69439
LeftLeg  -5.61379 7.49426 -3.7898
LeftFoot  0.982187 1.71032 -15.8145
LeftToes  1.03528e-008 1.55373e-010 -2.26046e-010
11
root  -35.6694 39.9784 -96.909 2.44724 46.0735 2.10707
RightUpLeg  0.669426 -4.88476 0.780791
RightLeg  3.74765 -11.1728 1.57271
RightFoot  -6.57771 0.00690825 -1.23745
RightToes  -1.16417e-010 0 -3.6325e-017
Spine  6.99766 -0.950183 5.08298
Spine1  -1.88361 -0.832635 0.104444
HEad  -3.80482 -25.5924 3.15343
LeftShoulder1  1.34723 0.0587071 -33.0471
LeftArm  6.10776 6.90813 -36.6185
LeftForeArm  10.8083 -7.52643 -15.4644
LeftHand  0.321125 -1.09375 -5.67042
RightShoulder  7.86581 10.6114 48.8132
RightArm  33.3011 2.51425 18.4634
RightForeArm  3.78389 16.5759 10.2104
RightHand  0.363105 4.02758 4.20142
LeftUpLeg  -11.9346 10.7463 10.0891
LeftLeg  -6.02806 8.96029 -4.2103
LeftFoot  1.40515 1.88102 -16.8156
LeftToes  1.03528e-008 1.55373e-010 -2.26046e-010
12
root  -35.1613 39.9516 -96.8151 2.10452 45.7381 1.8702
RightUpLeg  1.40183 -5.09623 0.434872
RightLeg  4.0998 -10.5447 1.37681
RightFoot  -7.23432 -0.0275782 -0.598404
RightToes  -1.16417e-010 0 -3.6325e-017
Spine  7.16817 -0.938822 4.74545
Spine1  -1.93933 -0.867907 0.271681
HEad  -4.2751 -26.2912 3.83894
LeftShoulder1  1.39543 -0.0838423 -32.8401
LeftArm  3.74882 5.49309 -36.6591
LeftForeArm  12.9661 -5.27814 -16.1474
LeftHand  0.331481 -0.929929 -6.02674
RightShoulder  8.08307 10.9174 49.0961
RightArm  24.9996 2.84675 17.9041
RightForeArm  11.8798 10.5643 14.1685
RightHand  0.3337 3.88005 3.91127
LeftUpLeg  -12.8728 11.0222 10.1007
LeftLeg  -4.87752 9.84982 -4.20882
LeftFoot  2.64125 1.80981 -14.8216
LeftToes  1.03528e-008 1.55373e-010 -2.26046e-010
13
root  -34.5878 39.8994 -96.7198 1.35027 44.9328 1.48988
RightUpLeg  2.42999 -5.28435 0.0957229
RightLeg  4.61611 -9.51287 1.09403
RightFoot  -8.0549 -0.0593511 0.165155
RightToes  -1.16417e-010 0 -3.6325e-017
Spine  7.29618 -0.830368 4.83464
Spine1  -1.75165 -0.69191 0.0789511
HEad  -3.75491 -26.9135 3.76237
LeftShoulder1  1.38966 -0.0652023 -32.8811
LeftArm  3.05864 4.82714 -36.2832
LeftForeArm  13.6669 -4.91076 -16.1885
LeftHand  0.338235 -1.04146 -6.03203
RightShoulder  8.3871 11.3216 49.5511
RightArm  17.8167 3.2151 17.0985
RightForeArm  18.937 3.81889 16.6352
RightHand  0.372655 3.81645 4.43312
LeftUpLeg  -12.9619 11.5156 10.2683
LeftLeg  -3.2071 10.1658 -4.18043
LeftFoot  3.73076 1.83525 -13.9882
LeftToes  1.03528e-008 1.55373e-010 -2.26046e-010
14
root  -33.952 39.8344 -96.621 0.456127 43.6767 0.975205
RightUpLeg  3.61118 -5.43562 -0.250896
RightLeg  4.96197 -7.95939 0.83049
RightFoot  -8.82004 -0.0851509 1.15095
RightToes  -1.16417e-010 0 -3.6325e-017
Spine  7.18537 -0.644881 5.16569
Spine1  -1.27945 -0.371158 -0.376119
HEad  -3.52185 -27.1306 3.27941
LeftShoulder1  1.33138 0.0781267 -32.8071
LeftArm  4.16549 5.27493 -35.9404
LeftForeArm  12.1119 -6.71452 -15.6182
LeftHand  0.334324 -1.11667 -5.88405
RightShoulder  8.55207 11.5104 49.8875
RightArm  14.5849 3.42474 16.5531
RightForeArm  23.168 -1.37963 17.4685
RightHand  0.389425 3.76655 4.67307
LeftUpLeg  -12.6248 12.0348 10.5484
LeftLeg  -1.0836 9.6129 -4.0297
LeftFoot  3.95349 1.71866 -12.9357
LeftToes  1.03528e-008 1.55373e-010 -2.26046e-010
15
root  -33.2477 39.7573 -96.5149 -0.331385 42.3396 0.314689
RightUpLeg  4.66557 -5.52331 -0.553811
RightLeg  5.24678 -6.44258 0.577185
RightFoot  -9.57089 -0.096128 2.0191
RightToes  -1.16417e-010 0 -3.6325e-017
Spine  6.85383 -0.583259 5.56838
Spine1  -0.897042 -0.173989 -0.833742
HEad  -3.6469 -26.6631 3.08507
LeftShoulder1  1.25228 0.286894 -32.8669
LeftArm  6.67082 6.7644 -35.4642
LeftForeArm  8.67444 -9.82312 -14.3865
LeftHand  0.314752 -1.12033 -5.53038
RightShoulder  8.41556 11.1668 50.2404
RightArm  15.8511 3.16774 15.9867
RightForeArm  23.4472 -3.37812 17.8199
RightHand  0.358566 3.69857 4.31962
LeftUpLeg  -11.9726 12.4824 10.7135
LeftLeg  0.614449 9.67878 -3.71394
LeftFoot  4.30925 1.56779 -11.5685
LeftToes  1.03528e-008 1.55373e-010 -2.26046e-010
